<?xml version="1.0" encoding="utf-8"?>
<!-- Generated by IcoMoon.io -->
<!DOCTYPE svg PUBLIC "-//W3C//DTD SVG 1.1//EN" "http://www.w3.org/Graphics/SVG/1.1/DTD/svg11.dtd">
<svg version="1.1" xmlns="http://www.w3.org/2000/svg" xmlns:xlink="http://www.w3.org/1999/xlink" width="512" height="512" viewBox="0 0 512 512">
<g>
</g>
	<path d="M257.792 102.267c87.132 0 157.266 70.83 157.266 157.993 0 86.425-70.144 157.255-157.266 157.255-87.153 0-157.993-70.83-157.993-157.255 0-87.163 70.841-157.993 157.993-157.993v0zM246.436 7.332h22.692v84.992h-22.692v-84.992zM386.704 42.773l-47.452 70.83 19.128 12.739 46.745-70.83-18.422-12.739zM483.072 149.73l-77.937 33.3 8.51 20.542 78.643-33.3-9.216-20.541zM504.996 292.834l-3.533 21.965-84.296-15.575 4.281-21.975 83.548 15.586zM444.805 423.895l-60.918-59.515-16.313 16.292 61.645 59.515 15.586-16.292zM322.243 499.722l-18.411-82.913-22.682 4.26 19.149 83.589 21.945-4.935zM177.726 495.473l30.464-80.056-21.238-7.834-30.494 79.36 21.268 8.53zM59.413 411.832l69.438-49.572-12.759-18.432-69.427 49.603 12.749 18.401zM7.7 277.238l-0.707-22.661 85.022-2.826 0.717 22.681-85.033 2.806zM38.175 136.243l72.254 43.95 12.052-19.138-72.254-43.929-12.053 19.118zM141.589 35.656l36.137 76.513 20.541-9.206-36.126-77.22-20.552 9.913z" fill="#000000" />
</svg>
