<?xml version="1.0" encoding="UTF-8"?>
<svg xmlns="http://www.w3.org/2000/svg" xmlns:xlink="http://www.w3.org/1999/xlink" width="493.41pt" height="120.97pt" viewBox="0 0 493.41 120.97" version="1.1">
<defs>
<clipPath id="clip1">
  <path d="M 356 0 L 478 0 L 478 120.96875 L 356 120.96875 Z M 356 0 "/>
</clipPath>
<clipPath id="clip2">
  <path d="M 487 96 L 493.410156 96 L 493.410156 104 L 487 104 Z M 487 96 "/>
</clipPath>
</defs>
<g id="surface1">
<path style=" stroke:none;fill-rule:nonzero;fill:rgb(9.399414%,8.999634%,10.998535%);fill-opacity:1;" d="M 0 17.886719 L 18.660156 17.886719 L 18.660156 85.863281 L 53.214844 85.863281 L 53.214844 103.082031 L 0 103.082031 L 0 17.886719 "/>
<path style=" stroke:none;fill-rule:nonzero;fill:rgb(9.399414%,8.999634%,10.998535%);fill-opacity:1;" d="M 70.429688 16.625 C 76.171875 16.625 80.832031 21.289063 80.832031 27.023438 C 80.832031 32.773438 76.171875 37.421875 70.429688 37.421875 C 64.691406 37.421875 60.027344 32.773438 60.027344 27.023438 C 60.027344 21.289063 64.691406 16.625 70.429688 16.625 M 61.457031 45.324219 L 79.394531 45.324219 L 79.394531 103.054688 L 61.457031 103.054688 L 61.457031 45.324219 "/>
<path style=" stroke:none;fill-rule:nonzero;fill:rgb(9.399414%,8.999634%,10.998535%);fill-opacity:1;" d="M 154.382813 17.878906 L 172.304688 17.878906 L 172.304688 68.796875 L 192.617188 45.296875 L 214.601563 45.296875 L 191.078125 72.027344 L 214.109375 103.082031 L 191.566406 103.082031 L 172.535156 74.542969 L 172.304688 74.542969 L 172.304688 103.082031 L 154.382813 103.082031 L 154.382813 17.878906 "/>
<path style=" stroke:none;fill-rule:nonzero;fill:rgb(9.399414%,8.999634%,10.998535%);fill-opacity:1;" d="M 89.316406 45.332031 L 106.535156 45.332031 L 106.535156 53.222656 L 106.773438 53.222656 C 109.160156 48.675781 115.027344 43.898438 123.753906 43.898438 C 141.929688 43.898438 145.277344 55.851563 145.277344 71.394531 L 145.277344 103.054688 L 127.339844 103.054688 L 127.339844 74.980469 C 127.339844 68.285156 127.21875 59.683594 118.007813 59.683594 C 108.6875 59.683594 107.253906 66.980469 107.253906 74.5 L 107.253906 103.054688 L 89.316406 103.054688 L 89.316406 45.332031 "/>
<path style=" stroke:none;fill-rule:nonzero;fill:rgb(9.399414%,8.999634%,10.998535%);fill-opacity:1;" d="M 267.535156 93.058594 C 261.796875 100.351563 252.355469 104.546875 243.027344 104.546875 C 225.089844 104.546875 210.742188 92.582031 210.742188 74.050781 C 210.742188 55.515625 225.089844 43.5625 243.027344 43.5625 C 259.773438 43.5625 270.289063 55.515625 270.289063 74.050781 L 270.289063 79.667969 L 228.679688 79.667969 C 230.105469 86.484375 235.261719 90.910156 242.183594 90.910156 C 248.054688 90.910156 251.988281 87.917969 254.980469 83.851563 Z M 252.355469 67.480469 C 252.46875 61.496094 247.808594 56.476563 241.34375 56.476563 C 233.457031 56.476563 229.152344 61.859375 228.679688 67.480469 L 252.355469 67.480469 "/>
<path style=" stroke:none;fill-rule:nonzero;fill:rgb(9.399414%,8.999634%,10.998535%);fill-opacity:1;" d="M 338.507813 103.046875 L 322.003906 103.046875 L 322.003906 95.390625 L 321.769531 95.390625 C 319.011719 99.574219 312.085938 104.476563 303.949219 104.476563 C 286.722656 104.476563 275.367188 92.046875 275.367188 74.472656 C 275.367188 58.324219 285.40625 43.5 301.910156 43.5 C 309.328125 43.5 316.265625 45.53125 320.335938 51.148438 L 320.566406 51.148438 L 320.566406 17.878906 L 338.507813 17.878906 Z M 307.644531 59.285156 C 298.683594 59.285156 293.308594 65.265625 293.308594 73.980469 C 293.308594 82.726563 298.683594 88.699219 307.644531 88.699219 C 316.621094 88.699219 322.003906 82.726563 322.003906 73.980469 C 322.003906 65.265625 316.621094 59.285156 307.644531 59.285156 "/>
<g clip-path="url(#clip1)" clip-rule="nonzero">
<path style=" stroke:none;fill-rule:nonzero;fill:rgb(9.399414%,8.999634%,10.998535%);fill-opacity:1;" d="M 459.527344 103.082031 L 441.605469 103.082031 L 441.605469 75.007813 C 441.605469 68.3125 441.476563 59.699219 432.28125 59.699219 C 422.945313 59.699219 421.519531 66.992188 421.519531 74.523438 L 421.519531 103.082031 L 403.582031 103.082031 L 403.582031 45.351563 L 420.796875 45.351563 L 420.796875 53.238281 L 421.039063 53.238281 C 423.4375 48.699219 429.292969 43.910156 438.019531 43.910156 C 456.175781 43.910156 459.527344 55.863281 459.527344 71.414063 Z M 383.351563 37.457031 C 377.601563 37.457031 372.953125 32.796875 372.953125 27.050781 C 372.953125 21.3125 377.601563 16.648438 383.351563 16.648438 C 389.09375 16.648438 393.753906 21.3125 393.753906 27.050781 C 393.753906 32.796875 389.09375 37.457031 383.351563 37.457031 Z M 374.375 45.351563 L 392.328125 45.351563 L 392.328125 103.082031 L 374.375 103.082031 Z M 468.46875 -0.00390625 L 365.378906 -0.00390625 C 360.449219 -0.00390625 356.445313 3.902344 356.445313 8.710938 L 356.445313 112.238281 C 356.445313 117.058594 360.449219 120.96875 365.378906 120.96875 L 468.46875 120.96875 C 473.398438 120.96875 477.429688 117.058594 477.429688 112.238281 L 477.429688 8.710938 C 477.429688 3.902344 473.398438 -0.00390625 468.46875 -0.00390625 "/>
</g>
<path style=" stroke:none;fill-rule:nonzero;fill:rgb(9.399414%,8.999634%,10.998535%);fill-opacity:1;" d="M 481.613281 97.714844 L 483.335938 97.714844 L 483.335938 103.082031 L 484.269531 103.082031 L 484.269531 97.714844 L 485.988281 97.714844 L 485.988281 96.777344 L 481.613281 96.777344 L 481.613281 97.714844 "/>
<g clip-path="url(#clip2)" clip-rule="nonzero">
<path style=" stroke:none;fill-rule:nonzero;fill:rgb(9.399414%,8.999634%,10.998535%);fill-opacity:1;" d="M 492.074219 96.777344 L 490.238281 101.402344 L 488.398438 96.777344 L 487.066406 96.777344 L 487.066406 103.082031 L 487.996094 103.082031 L 487.996094 98.285156 L 489.925781 103.082031 L 490.546875 103.082031 L 492.476563 98.285156 L 492.476563 103.082031 L 493.40625 103.082031 L 493.40625 96.777344 L 492.074219 96.777344 "/>
</g>
</g>
</svg>
